<svg width="1322.434" height="1097.018" viewBox="0 0 349.894 290.253" xmlns="http://www.w3.org/2000/svg"><defs><marker id="a" refX="0" refY="0" orient="auto" overflow="visible"><path d="M10 0l4-4L0 0l14 4z" fill="context-stroke" fill-rule="evenodd" stroke="context-stroke" stroke-width=".8pt"/></marker><marker id="b" refX="0" refY="0" orient="auto" overflow="visible"><path d="M-10 0l-4 4L0 0l-14-4z" fill="context-stroke" fill-rule="evenodd" stroke="context-stroke" stroke-width=".8pt"/></marker><marker id="c" refX="0" refY="0" orient="auto" overflow="visible"><path d="M-10 0l-4 4L0 0l-14-4z" fill="context-stroke" fill-rule="evenodd" stroke="context-stroke" stroke-width=".8pt"/></marker></defs><path opacity=".306" fill="#00f" d="M226.982 0v290.253h-68.676V0z"/><path opacity=".306" fill="#00f" d="M37.375 113.032h310.538v64.19H37.375z"/><path fill="#0f0" d="M158.306 113.032h68.676v64.19h-68.676z"/><path fill="red" d="M240.986 123.649h23.216v21.7h-23.216zM269.897 161.097h23.216v21.7h-23.216zM313.181 125.367h23.216v21.7h-23.216zM111.156 127.522h23.216v21.7h-23.216zM55.763 141.114h23.216v21.7H55.763zM169.699 194.421h23.216v21.7h-23.216zM195.942 236.382h23.216v21.7h-23.216zM179.097 74.977h23.216v21.7h-23.216zM148.562 45.12h23.216v21.7h-23.216zM212.208 13.147h23.216v21.7h-23.216z"/><text style="line-height:1.25" x="197.291" y="126.3" transform="matrix(1.03435 0 0 .96679 71.423 -1.833)" font-size="9.286" font-family="sans-serif" word-spacing="0" stroke-width=".232"><tspan style="-inkscape-font-specification:'Source Code Pro'" x="197.291" y="126.3" font-weight="400" font-family="Source Code Pro">_bboxes_right</tspan></text><text style="line-height:1.25" x="404.769" y="26.005" transform="matrix(1.03435 0 0 .96679 71.423 -1.833)" font-size="21.139" font-family="sans-serif" word-spacing="0" stroke-width=".528"/><text style="line-height:1.25" x="137.222" y="62.426" transform="matrix(1.03435 0 0 .96679 71.423 -1.833)" font-size="9.286" font-family="sans-serif" word-spacing="0" stroke-width=".232"><tspan style="-inkscape-font-specification:'Source Code Pro'" x="137.222" y="62.426" font-weight="400" font-family="Source Code Pro">_bboxes_up</tspan></text><text style="line-height:1.25" x="-69.608" y="134.124" transform="matrix(1.03435 0 0 .96679 71.423 -1.833)" font-size="9.286" font-family="sans-serif" word-spacing="0" stroke-width=".232"><tspan style="-inkscape-font-specification:'Source Code Pro'" x="-69.608" y="134.124" font-weight="400" font-family="Source Code Pro">_bboxes_left</tspan></text><text style="line-height:1.25" x="127.305" y="229.271" transform="matrix(1.03435 0 0 .96679 71.423 -1.833)" font-size="9.286" font-family="sans-serif" word-spacing="0" stroke-width=".232"><tspan style="-inkscape-font-specification:'Source Code Pro'" x="127.305" y="229.271" font-weight="400" font-family="Source Code Pro">_bboxes_down</tspan></text><path fill="teal" d="M221.518 153.218h16.784v15.688h-16.784zM217.891 104.713h16.784v15.688h-16.784zM147.256 125.555h16.784v15.688h-16.784z"/><path d="M86.25 134.832l168.406-80.03-99.097 60.063" fill="none" stroke="#000" stroke-width=".232" marker-start="url(#a)" marker-end="url(#b)" transform="translate(71.423 -1.833)"/><path d="M254.656 54.801l-95.807 108.657" fill="none" stroke="#000" stroke-width=".232" marker-end="url(#c)" transform="translate(71.423 -1.833)"/><text style="line-height:1.25" x="234.369" y="53.168" transform="matrix(1.03435 0 0 .96679 71.423 -1.833)" font-size="9.286" font-family="sans-serif" word-spacing="0" stroke-width=".232"><tspan x="234.369" y="53.168">ignored</tspan></text></svg>