<svg width="1182.73" height="693.221" viewBox="0 0 312.931 183.415" xmlns="http://www.w3.org/2000/svg"><path opacity=".354" fill="#0ff" d="M0 24.036h48.83v48.83H0zM68.139 31.938h48.83v48.83H68.14zM132.76 24.036h48.83v48.83h-48.83z"/><path opacity=".354" fill="#0ff" d="M163.632 31.416h48.83v48.83h-48.83zM243.638 15.57h48.83v48.832h-48.83zM0 126.68h48.83v48.832H0zM68.139 134.584h48.83v48.83H68.14zM132.76 126.68h48.83v48.832h-48.83z"/><path opacity=".354" fill="#0ff" d="M163.632 134.062h48.83v48.83h-48.83zM243.638 118.216h48.83v48.83h-48.83z"/><path opacity=".354" fill="#0ff" d="M264.1 102.646h48.83v48.83H264.1z"/><path opacity=".189" fill="purple" d="M132.76 126.68h79.703v56.213H132.76z"/><text style="line-height:1.25" x="-67.836" y="22.458" font-size="7.541" font-family="sans-serif" word-spacing="0" stroke-width=".189" transform="translate(69.64 -8.122)"><tspan x="-67.836" y="22.458">Original list</tspan></text><path opacity=".354" fill="#0ff" d="M68.139 31.938h48.83v48.83H68.14zM264.1 0h48.83v48.83H264.1z"/><path opacity=".189" fill="purple" d="M243.638 102.646h69.293v64.402h-69.293z"/><text style="line-height:1.05" x="-68.907" y="119.548" font-size="7.541" font-family="sans-serif" word-spacing="0" stroke-width=".189" transform="translate(69.64 -8.122)"><tspan style="-inkscape-font-specification:'Source Code Pro'" x="-68.907" y="119.548" font-weight="400" font-size="5.53" font-family="Source Code Pro"><tspan font-size="7.541" font-family="sans-serif">List after </tspan>_addBBoxforIntersectingBBoxes</tspan><tspan x="-68.907" y="127.466">does it&apos;s job</tspan></text></svg>